<?xml version="1.0" encoding="UTF-8" standalone="no"?>
<svg
   viewBox="75 75 250 225"
   width="100%"
   height="100%"
   version="1.1"
   id="svg23"
   sodipodi:docname="logo.svg"
   inkscape:version="1.4 (86a8ad7, 2024-10-11)"
   xmlns:inkscape="http://www.inkscape.org/namespaces/inkscape"
   xmlns:sodipodi="http://sodipodi.sourceforge.net/DTD/sodipodi-0.dtd"
   xmlns:xlink="http://www.w3.org/1999/xlink"
   xmlns="http://www.w3.org/2000/svg"
   xmlns:svg="http://www.w3.org/2000/svg">
  <sodipodi:namedview
     id="namedview23"
     pagecolor="#ffffff"
     bordercolor="#000000"
     borderopacity="0.25"
     inkscape:showpageshadow="2"
     inkscape:pageopacity="0.0"
     inkscape:pagecheckerboard="0"
     inkscape:deskcolor="#d1d1d1"
     inkscape:zoom="2.8531759"
     inkscape:cx="133.18492"
     inkscape:cy="111.62999"
     inkscape:window-width="1920"
     inkscape:window-height="1009"
     inkscape:window-x="-8"
     inkscape:window-y="-8"
     inkscape:window-maximized="1"
     inkscape:current-layer="svg23" />
  <defs
     id="defs6">
    <linearGradient
       id="linearGradient8"
       x1="0%"
       y1="100%"
       x2="100%"
       y2="0%">
      <stop
         offset="0"
         style="stop-color:#0ea5e9;stop-opacity:1;"
         id="stop7" />
      <stop
         offset="100%"
         style="stop-color:#8b5cf6;stop-opacity:1"
         id="stop8" />
    </linearGradient>
    <linearGradient
       id="optPath"
       x1="0%"
       y1="100%"
       x2="100%"
       y2="0%">
      <stop
         offset="0%"
         style="stop-color:#0ea5e9;stop-opacity:1"
         id="stop1" />
      <stop
         offset="100%"
         style="stop-color:#8b5cf6;stop-opacity:1"
         id="stop2" />
    </linearGradient>
    <linearGradient
       id="invOptPath"
       x1="0%"
       y1="100%"
       x2="100%"
       y2="0%">
      <stop
         offset="0%"
         style="stop-color:#8b5cf6;stop-opacity:1"
         id="stop3" />
      <stop
         offset="100%"
         style="stop-color:#0ea5e9;stop-opacity:1"
         id="stop4" />
    </linearGradient>
    <linearGradient
       id="bg"
       x1="26.976236"
       y1="15.300332"
       x2="329.97716"
       y2="329.97716"
       gradientTransform="scale(1.0289473,0.97186707)"
       gradientUnits="userSpaceOnUse">
      <stop
         offset="0%"
         style="stop-color:#0f172a;stop-opacity:1"
         id="stop5" />
      <stop
         offset="100%"
         style="stop-color:#020617;stop-opacity:1"
         id="stop6" />
    </linearGradient>
    <filter
       id="glow"
       x="-0.15672"
       y="-0.41132"
       width="1.31344"
       height="1.82264">
      <feGaussianBlur
         stdDeviation="4.142 3.522"
         result="blur"
         id="feGaussianBlur6" />
      <feComposite
         in="SourceGraphic"
         in2="blur"
         operator="over"
         id="feComposite6" />
    </filter>
    <linearGradient
       inkscape:collect="always"
       xlink:href="#optPath"
       id="linearGradient23"
       x1="71.408363"
       y1="431.6445"
       x2="238.3232"
       y2="295.18573"
       gradientTransform="scale(1.3973713,0.71562943)"
       gradientUnits="userSpaceOnUse" />
    <linearGradient
       inkscape:collect="always"
       xlink:href="#linearGradient8"
       id="linearGradient4"
       x1="0%"
       y1="100%"
       x2="100%"
       y2="0%" />
    <linearGradient
       inkscape:collect="always"
       xlink:href="#optPath"
       id="linearGradient9"
       x1="0%"
       y1="100%"
       x2="100%"
       y2="0%" />
    <linearGradient
       inkscape:collect="always"
       xlink:href="#optPath"
       id="linearGradient10"
       x1="0%"
       y1="100%"
       x2="100%"
       y2="0%" />
  </defs>
  <!-- MPPI Rollout Samples -->
  <!-- "aran" Rollout -->
  <g
     fill="none"
     stroke-linecap="round"
     id="g12"
     style="display:inline">
    <!-- Main Stem & Top Curve -->
    <path
       d="m 120,220 q 0,-40 40,-40 h 80"
       stroke="#8b5cf6"
       stroke-width="16"
       filter="url(#glow)"
       id="path11"
       style="display:inline"
       transform="matrix(1.1285334,0,0,-1.3074933,-12.479254,442.66346)" />
    <!-- Middle bar -->
    <path
       d="M 120,280 V 160 q 0,-60 60,-60 h 80"
       stroke="url(#optPath)"
       stroke-width="24"
       filter="url(#glow)"
       id="path12"
       style="display:inline" />
  </g>
  <g
     id="g10"
     style="display:inline"
     transform="translate(1.4019465,-105.14599)">
    <path
       d="M 120,280 C 95,220 95,150 140,100 155.37821,93.391155 175.89405,83.53391 196.63247,83.85398 218.28299,84.188128 239.56965,84.784825 260,95"
       id="path6"
       sodipodi:nodetypes="ccsc"
       style="display:inline;stroke:url(#linearGradient10);fill:none;opacity:0.4"
       transform="translate(-1.4019465,105.14599)" />
    <path
       d="m 120,280 c 15.83962,-38.01508 -14.96918,-79.90856 -13.7185,-112.8138 0.79326,-20.87082 5.81966,-30.714 9.86027,-42.50416 1.11194,-3.24455 7.97603,-18.56288 18.50774,-24.30929 C 164.62278,84.018454 190,120 255,105"
       id="path7"
       sodipodi:nodetypes="csssc"
       style="display:inline;opacity:0.4;fill:none;stroke:url(#linearGradient9)"
       transform="translate(-1.4019465,105.14599)" />
    <path
       d="M 120,280 C 105,230 110,170 125,115 135,80 200,70 250,105"
       id="path8"
       style="display:inline;stroke:url(#linearGradient4);fill:none;opacity:0.4"
       transform="translate(-1.4019465,105.14599)" />
    <path
       d="m 117.89708,384.7955 c -2.96036,-22.78163 -16.57391,-92.39122 3.73302,-99.11611 46.07434,-15.25809 79.93851,-53.92438 41.3005,-45.63602 -25.61914,5.49564 -19.91325,42.39157 -9.91325,42.39157 10,0 28.3829,-19.95662 28.3829,-29.95662 C 181.40025,242.47832 175,280 185,280 c 4.14329,0 11.02614,-8.72505 12.52586,-18.75465 2.11991,-14.17725 -2.4933,-30.6113 -5.95214,-25.66294 -7.03613,10.06617 37.79426,8.84356 46.22581,5.78652 12.38312,-4.48977 -9.99882,-5.02171 -16.29275,2.35311 -6.46314,7.57311 -11.92777,35.20745 4.63768,35.55383 7.77939,0.16267 28.30073,-16.17758 27.49961,-29.2106 -0.65942,-10.72785 -9.27305,28.6666 1.13774,28.59866 11.03524,-0.072 22.91911,-52.98806 12.16022,-38.64468 -4.0766,5.43477 20.4257,-7.22817 29.27076,-0.30733 9.31243,7.28654 1.01113,29.19732 -4.75059,37.34508"
       stroke="url(#optPath)"
       stroke-width="2.5"
       opacity="0.4"
       fill="none"
       stroke-linecap="round"
       stroke-linejoin="round"
       filter="url(#glow)"
       id="path10"
       sodipodi:nodetypes="cssssssssssssssc"
       style="display:inline;stroke:url(#linearGradient23)" />
  </g>
  <!-- Main "F" Trajectories -->
  <!-- Waypoints (Negative Space) along the optimal paths -->
  <circle
     fill="#0f172a"
     id="circle14"
     style="display:inline"
     cy="220"
     cx="120"
     r="1.7218369" />
  <circle
     fill="#0f172a"
     id="circle14-0"
     style="display:inline"
     cy="151.60289"
     cx="119.99568"
     r="1.7218369" />
  <circle
     fill="#0f172a"
     id="circle14-9"
     style="display:inline"
     cy="104.92507"
     cx="153.13077"
     r="1.7218369" />
  <circle
     fill="#0f172a"
     id="circle14-4"
     style="display:inline"
     cy="100.21627"
     cx="213.65741"
     r="1.7218369" />
  <!-- End -->
  <circle
     cx="260"
     cy="100"
     r="10"
     fill="#e0e7ff"
     id="circle20"
     style="display:inline;fill:#e0e7ff;fill-opacity:0.80000001" />
  <circle
     cx="260"
     cy="100"
     r="5"
     fill="#8b5cf6"
     id="circle21"
     style="display:inline;fill:#0ca1e9;fill-opacity:0.80000001" />
  <!-- Start -->
  <circle
     cx="119.99266"
     cy="280.41052"
     r="7"
     fill="#e0e7ff"
     opacity="0.8"
     id="circle22"
     style="display:inline" />
  <circle
     cx="119.76609"
     cy="280.53442"
     r="3"
     fill="#8b5cf6"
     opacity="0.8"
     id="circle23"
     style="display:inline" />
</svg>
